<svg id="svg" version="1.1" xmlns="http://www.w3.org/2000/svg" xmlns:xlink="http://www.w3.org/1999/xlink" width="400" height="400" viewBox="0, 0, 400,400"><g id="svgg"><path id="path0" d="M89.803 40.348 C 88.239 40.686,88.107 41.372,88.047 49.462 L 88.000 55.924 80.620 56.062 C 71.417 56.234,72.234 55.420,72.062 64.582 L 71.925 71.925 64.582 72.062 C 59.246 72.162,57.097 72.342,56.720 72.720 C 56.308 73.131,56.176 78.094,56.085 96.582 L 55.970 119.924 48.604 120.062 C 39.419 120.234,40.234 119.421,40.062 128.582 L 39.925 135.925 32.582 136.062 C 23.422 136.234,24.234 135.422,24.062 144.582 L 23.925 151.925 16.582 152.062 C 11.244 152.162,9.097 152.342,8.720 152.720 C 7.956 153.484,7.956 198.516,8.720 199.280 C 9.097 199.658,11.244 199.838,16.582 199.938 L 23.925 200.075 24.062 207.418 C 24.234 216.578,23.420 215.766,32.598 215.938 L 39.957 216.076 40.078 231.418 C 40.173 243.337,40.316 246.877,40.720 247.280 C 41.097 247.658,43.255 247.838,48.620 247.938 L 56.000 248.076 56.000 324.038 L 56.000 400.000 67.200 400.000 L 78.400 400.000 78.400 315.855 L 78.400 231.710 77.183 230.155 C 75.441 227.928,73.778 226.592,70.694 224.942 C 67.427 223.194,65.248 221.154,63.622 218.319 L 62.408 216.200 62.398 198.400 C 62.386 176.738,62.273 176.107,58.332 175.713 C 57.384 175.618,56.538 175.472,56.454 175.388 C 55.562 174.495,49.457 179.938,47.878 183.033 C 43.147 192.305,36.933 193.519,33.370 185.866 C 32.457 183.906,32.408 183.398,32.408 176.000 C 32.408 165.173,33.088 163.702,39.448 160.778 C 44.014 158.678,46.678 156.014,48.778 151.448 C 52.466 143.426,57.157 142.914,62.103 149.994 L 63.619 152.164 63.609 160.982 C 63.592 175.222,62.666 174.382,78.400 174.398 L 88.200 174.408 90.288 175.605 C 92.937 177.124,94.876 179.063,96.395 181.712 L 97.592 183.800 97.596 192.044 L 97.600 200.287 98.914 201.948 C 100.770 204.293,102.634 205.733,105.669 207.168 C 108.855 208.673,111.591 211.453,112.981 214.596 C 114.138 217.211,115.729 219.248,118.052 221.086 L 119.713 222.400 136.000 222.400 L 152.287 222.400 153.948 221.086 C 156.271 219.248,157.862 217.211,159.019 214.596 C 160.409 211.453,163.145 208.673,166.331 207.168 C 169.366 205.733,171.230 204.293,173.086 201.948 L 174.400 200.287 174.404 192.044 L 174.408 183.800 175.605 181.712 C 177.124 179.063,179.063 177.124,181.712 175.605 L 183.800 174.408 192.000 174.408 L 200.200 174.408 202.288 175.605 C 204.937 177.124,206.876 179.063,208.395 181.712 L 209.592 183.800 209.596 192.044 L 209.600 200.287 210.914 201.948 C 212.770 204.293,214.634 205.733,217.669 207.168 C 220.855 208.673,223.591 211.453,224.981 214.596 C 226.138 217.211,227.729 219.248,230.052 221.086 L 231.713 222.400 239.956 222.404 L 248.200 222.408 250.319 223.622 C 252.953 225.133,255.101 227.316,256.523 229.929 L 257.615 231.937 257.508 281.068 L 257.400 330.200 256.524 332.097 C 255.089 335.203,253.629 336.202,248.523 337.569 C 246.201 338.191,242.191 342.201,241.569 344.523 C 239.038 353.975,241.828 353.354,200.786 353.600 L 167.371 353.800 165.800 355.096 C 164.935 355.808,163.637 357.139,162.914 358.052 L 161.600 359.713 161.600 379.856 L 161.600 400.000 172.800 400.000 L 184.000 400.000 184.000 388.012 L 184.000 376.023 215.380 375.912 C 240.464 375.822,246.865 375.696,247.280 375.280 C 247.658 374.903,247.838 372.755,247.938 367.418 L 248.075 360.075 255.418 359.938 C 264.578 359.766,263.766 360.578,263.938 351.418 L 264.075 344.075 271.418 343.938 C 276.756 343.838,278.903 343.658,279.280 343.280 C 279.701 342.859,279.820 330.715,279.906 279.395 L 280.012 216.030 303.386 215.915 C 321.900 215.824,326.869 215.692,327.280 215.280 C 327.658 214.903,327.838 212.754,327.938 207.418 L 328.075 200.075 335.418 199.938 C 340.756 199.838,342.903 199.658,343.280 199.280 C 344.044 198.516,344.044 153.484,343.280 152.720 C 342.903 152.342,340.756 152.162,335.418 152.062 L 328.075 151.925 327.938 144.582 C 327.766 135.421,328.581 136.234,319.396 136.062 L 312.030 135.924 311.915 112.582 C 311.824 94.094,311.692 89.131,311.280 88.720 C 310.903 88.342,308.754 88.162,303.418 88.062 L 296.075 87.925 295.938 80.582 C 295.766 71.422,296.578 72.234,287.418 72.062 L 280.075 71.925 279.938 64.582 C 279.766 55.422,280.578 56.234,271.418 56.062 L 264.075 55.925 263.938 48.582 C 263.838 43.244,263.658 41.097,263.280 40.720 C 262.724 40.164,92.347 39.799,89.803 40.348 M250.925 63.836 C 253.686 64.777,255.439 66.747,256.436 70.029 C 257.862 74.723,261.277 78.138,265.971 79.564 C 270.024 80.795,272.800 84.140,272.800 87.793 C 272.800 89.665,269.577 93.641,266.422 95.661 L 264.643 96.800 200.422 96.801 C 127.452 96.803,135.517 96.397,131.759 100.264 C 129.680 102.403,129.016 103.577,128.628 105.800 C 128.474 106.680,127.989 108.154,127.550 109.076 C 126.678 110.907,124.716 112.118,121.800 112.628 C 119.577 113.016,118.403 113.680,116.264 115.759 C 112.795 119.130,112.803 119.101,112.801 128.422 L 112.800 136.643 111.661 138.422 C 110.218 140.675,108.675 142.218,106.422 143.661 L 104.643 144.800 96.000 144.800 L 87.357 144.800 85.578 143.661 C 83.325 142.218,81.782 140.675,80.339 138.422 L 79.200 136.643 79.200 111.793 C 79.200 81.291,79.121 81.662,86.029 79.564 C 90.723 78.138,94.138 74.723,95.564 70.029 C 96.538 66.821,98.303 64.785,100.910 63.862 C 103.564 62.922,248.170 62.898,250.925 63.836 M281.917 118.115 L 283.600 119.830 283.600 127.935 C 283.600 134.397,283.477 136.278,282.993 137.213 C 281.668 139.775,287.177 139.600,207.935 139.600 L 135.830 139.600 134.115 137.917 L 132.400 136.233 132.400 127.677 L 132.400 119.120 133.760 117.760 L 135.120 116.400 207.677 116.400 L 280.233 116.400 281.917 118.115 M298.433 145.617 C 300.771 146.810,301.494 147.690,303.222 151.448 C 305.322 156.014,307.986 158.678,312.552 160.778 C 318.912 163.702,319.592 165.173,319.592 176.000 C 319.592 189.758,317.761 191.589,303.993 191.596 C 294.658 191.601,293.008 190.911,289.584 185.574 L 288.400 183.730 288.400 168.079 C 288.400 154.714,288.495 152.148,289.047 150.514 C 290.668 145.722,294.609 143.666,298.433 145.617 M154.609 161.971 C 155.753 162.836,157.345 164.435,158.145 165.525 L 159.600 167.507 159.600 184.475 L 159.600 201.443 158.576 203.498 C 157.741 205.174,157.174 205.741,155.498 206.576 L 153.443 207.600 136.000 207.600 L 118.557 207.600 116.502 206.576 C 114.826 205.741,114.259 205.174,113.424 203.498 L 112.400 201.443 112.400 184.475 L 112.400 167.507 113.847 165.536 C 114.643 164.452,116.218 162.856,117.347 161.989 L 119.400 160.413 135.964 160.407 L 152.527 160.400 154.609 161.971 M266.609 161.971 C 267.753 162.836,269.345 164.435,270.145 165.525 L 271.600 167.507 271.600 183.807 C 271.600 202.081,271.564 202.373,268.968 204.968 C 266.366 207.570,266.124 207.600,247.332 207.600 L 230.557 207.600 228.502 206.576 C 226.826 205.741,226.259 205.174,225.424 203.498 L 224.400 201.443 224.400 184.475 L 224.400 167.507 225.847 165.536 C 226.643 164.452,228.218 162.856,229.347 161.989 L 231.400 160.413 247.964 160.407 L 264.527 160.400 266.609 161.971 M166.006 258.950 C 164.355 260.257,161.600 263.414,161.600 264.000 C 161.600 264.586,164.355 267.743,166.006 269.050 L 167.713 270.400 176.000 270.400 L 184.287 270.400 185.994 269.050 C 187.645 267.743,190.400 264.586,190.400 264.000 C 190.400 263.414,187.645 260.257,185.994 258.950 L 184.287 257.600 176.000 257.600 L 167.713 257.600 166.006 258.950 M118.006 290.950 C 116.355 292.257,113.600 295.414,113.600 296.000 C 113.600 297.315,119.137 302.404,120.556 302.393 C 122.888 302.375,126.375 298.888,126.393 296.556 C 126.404 295.137,121.315 289.600,120.000 289.600 C 119.842 289.600,118.945 290.208,118.006 290.950 M133.008 306.515 C 128.464 309.088,128.830 312.954,134.006 317.050 L 135.713 318.400 160.000 318.400 L 184.287 318.400 185.994 317.050 C 187.645 315.743,190.400 312.586,190.400 312.000 C 190.400 311.414,187.645 308.257,185.994 306.950 L 184.287 305.600 159.444 305.607 L 134.600 305.613 133.008 306.515 " stroke="none" fill="#040404" fill-rule="evenodd"></path><path id="path1" d="M55.447 151.524 C 55.322 151.726,55.032 153.581,54.802 155.645 C 53.837 164.302,52.297 165.837,43.605 166.806 C 41.518 167.039,39.670 167.370,39.497 167.543 C 38.857 168.183,39.337 184.600,39.996 184.600 C 40.607 184.600,40.708 184.173,41.530 178.106 C 42.330 172.209,44.209 170.330,50.106 169.530 C 51.698 169.315,53.810 169.015,54.800 168.865 L 56.600 168.592 56.600 160.029 C 56.600 151.920,56.348 150.065,55.447 151.524 M295.396 151.667 C 295.283 151.961,295.238 159.491,295.295 168.401 L 295.400 184.600 304.000 184.600 L 312.600 184.600 312.600 176.004 L 312.600 167.408 310.800 167.135 C 309.810 166.985,307.698 166.685,306.106 166.470 C 300.209 165.670,298.330 163.791,297.530 157.894 C 296.765 152.251,296.594 151.464,296.100 151.300 C 295.825 151.208,295.508 151.374,295.396 151.667 M70.298 179.916 C 69.472 180.512,68.347 181.665,67.798 182.479 L 66.800 183.958 66.800 200.003 L 66.800 216.048 68.900 218.276 C 70.390 219.856,71.834 220.884,73.869 221.815 C 77.496 223.473,80.044 225.813,81.589 228.905 L 82.800 231.328 82.800 315.664 L 82.800 400.000 120.000 400.000 L 157.200 400.000 157.200 379.664 L 157.200 359.328 158.411 356.905 C 159.839 354.046,162.434 351.520,165.322 350.175 L 167.400 349.208 199.622 349.204 L 231.843 349.200 233.700 348.023 C 235.309 347.002,235.801 346.333,237.389 343.002 C 239.900 337.736,241.536 336.073,246.686 333.558 C 250.325 331.781,251.025 331.273,252.036 329.678 L 253.200 327.843 253.200 279.855 L 253.200 231.867 250.667 229.333 L 248.133 226.800 239.767 226.796 C 227.989 226.791,225.574 225.538,221.582 217.364 C 219.350 212.792,218.902 212.356,214.298 210.257 C 210.514 208.533,207.977 206.229,206.411 203.095 L 205.200 200.672 205.200 192.269 L 205.200 183.867 202.667 181.333 L 200.133 178.800 192.000 178.800 L 183.867 178.800 181.333 181.333 L 178.800 183.867 178.800 192.269 L 178.800 200.672 177.589 203.095 C 176.023 206.229,173.486 208.533,169.702 210.257 C 165.098 212.356,164.650 212.792,162.418 217.364 C 160.149 222.010,158.129 224.218,154.678 225.825 L 152.600 226.792 135.964 226.796 L 119.328 226.800 116.905 225.589 C 113.771 224.023,111.467 221.486,109.743 217.702 C 107.644 213.098,107.208 212.650,102.636 210.418 C 94.462 206.426,93.209 204.011,93.204 192.233 L 93.200 183.867 90.667 181.333 L 88.133 178.800 79.967 178.816 L 71.800 178.833 70.298 179.916 M187.095 254.411 C 190.700 256.212,194.792 261.310,194.792 264.000 C 194.792 266.690,190.700 271.788,187.095 273.589 L 184.672 274.800 176.000 274.800 L 167.328 274.800 164.905 273.589 C 161.278 271.777,157.221 266.706,157.204 263.964 C 157.196 262.639,159.693 258.416,161.433 256.812 C 165.033 253.494,166.190 253.208,176.036 253.204 L 184.672 253.200 187.095 254.411 M122.656 286.165 C 126.489 287.950,128.787 290.574,130.626 295.267 C 131.656 297.894,133.085 299.698,134.880 300.636 C 135.775 301.103,140.129 301.201,160.280 301.204 L 184.600 301.208 186.678 302.175 C 190.414 303.915,194.800 309.220,194.800 312.000 C 194.800 314.780,190.414 320.085,186.678 321.825 L 184.600 322.792 160.000 322.792 L 135.400 322.792 133.344 321.835 C 129.510 320.050,127.213 317.426,125.372 312.728 C 124.136 309.575,122.444 307.822,119.621 306.772 C 114.116 304.726,109.227 299.652,109.204 295.964 C 109.187 293.234,113.607 287.905,117.322 286.175 C 119.888 284.981,120.112 284.980,122.656 286.165 " stroke="none" fill="#f4ac7c" fill-rule="evenodd"></path><path id="path2" d="M100.910 63.862 C 98.303 64.785,96.538 66.821,95.564 70.029 C 94.138 74.723,90.723 78.138,86.029 79.564 C 79.121 81.662,79.200 81.291,79.200 111.793 L 79.200 136.643 80.339 138.422 C 81.782 140.675,83.325 142.218,85.578 143.661 L 87.357 144.800 96.000 144.800 L 104.643 144.800 106.422 143.661 C 108.675 142.218,110.218 140.675,111.661 138.422 L 112.800 136.643 112.801 128.422 C 112.803 119.101,112.795 119.130,116.264 115.759 C 118.403 113.680,119.577 113.016,121.800 112.628 C 122.680 112.474,124.154 111.989,125.076 111.550 C 126.907 110.678,128.118 108.716,128.628 105.800 C 129.016 103.577,129.680 102.403,131.759 100.264 C 135.517 96.397,127.452 96.803,200.422 96.801 L 264.643 96.800 266.422 95.661 C 269.577 93.641,272.800 89.665,272.800 87.793 C 272.800 84.140,270.024 80.795,265.971 79.564 C 261.277 78.138,257.862 74.723,256.436 70.029 C 255.439 66.747,253.686 64.777,250.925 63.836 C 248.170 62.898,103.564 62.922,100.910 63.862 M133.760 117.760 L 132.400 119.120 132.400 127.677 L 132.400 136.233 134.115 137.917 L 135.830 139.600 207.935 139.600 C 287.177 139.600,281.668 139.775,282.993 137.213 C 283.477 136.278,283.600 134.397,283.600 127.935 L 283.600 119.830 281.917 118.115 L 280.233 116.400 207.677 116.400 L 135.120 116.400 133.760 117.760 M53.480 145.637 C 51.214 146.833,50.486 147.733,48.778 151.448 C 46.678 156.014,44.014 158.678,39.448 160.778 C 33.088 163.702,32.408 165.173,32.408 176.000 C 32.408 183.398,32.457 183.906,33.370 185.866 C 36.933 193.519,43.147 192.305,47.878 183.033 C 49.457 179.938,55.562 174.495,56.454 175.388 C 56.538 175.472,57.384 175.618,58.332 175.713 C 62.273 176.107,62.386 176.738,62.398 198.400 L 62.408 216.200 63.622 218.319 C 65.248 221.154,67.427 223.194,70.694 224.942 C 73.778 226.592,75.441 227.928,77.183 230.155 L 78.400 231.710 78.400 315.855 L 78.400 400.000 80.600 400.000 L 82.800 400.000 82.800 315.664 L 82.800 231.328 81.589 228.905 C 80.044 225.813,77.496 223.473,73.869 221.815 C 71.834 220.884,70.390 219.856,68.900 218.276 L 66.800 216.048 66.800 200.015 L 66.800 183.983 67.832 182.423 C 70.065 179.049,70.905 178.800,80.058 178.800 L 88.133 178.800 90.667 181.333 L 93.200 183.867 93.204 192.233 C 93.209 204.011,94.462 206.426,102.636 210.418 C 107.208 212.650,107.644 213.098,109.743 217.702 C 111.467 221.486,113.771 224.023,116.905 225.589 L 119.328 226.800 136.000 226.800 L 152.672 226.800 155.095 225.589 C 158.229 224.023,160.533 221.486,162.257 217.702 C 164.356 213.098,164.792 212.650,169.364 210.418 C 177.538 206.426,178.791 204.011,178.796 192.233 L 178.800 183.867 181.333 181.333 L 183.867 178.800 192.000 178.800 L 200.133 178.800 202.667 181.333 L 205.200 183.867 205.204 192.233 C 205.209 204.011,206.462 206.426,214.636 210.418 C 219.208 212.650,219.644 213.098,221.743 217.702 C 223.467 221.486,225.771 224.023,228.905 225.589 L 231.328 226.800 239.731 226.800 L 248.133 226.800 250.667 229.333 L 253.200 231.867 253.200 279.855 L 253.200 327.843 252.036 329.678 C 251.025 331.273,250.325 331.781,246.686 333.558 C 241.536 336.073,239.900 337.736,237.389 343.002 C 235.801 346.333,235.309 347.002,233.700 348.023 L 231.843 349.200 199.622 349.204 L 167.400 349.208 165.322 350.175 C 162.434 351.520,159.839 354.046,158.411 356.905 L 157.200 359.328 157.200 379.664 L 157.200 400.000 159.400 400.000 L 161.600 400.000 161.600 379.856 L 161.600 359.713 162.914 358.052 C 163.637 357.139,164.935 355.808,165.800 355.096 L 167.371 353.800 200.786 353.600 C 241.828 353.354,239.038 353.975,241.569 344.523 C 242.191 342.201,246.201 338.191,248.523 337.569 C 253.629 336.202,255.089 335.203,256.524 332.097 L 257.400 330.200 257.508 281.068 L 257.615 231.937 256.523 229.929 C 255.101 227.316,252.953 225.133,250.319 223.622 L 248.200 222.408 239.956 222.404 L 231.713 222.400 230.052 221.086 C 227.707 219.230,226.267 217.366,224.832 214.331 C 223.327 211.145,220.547 208.409,217.404 207.019 C 214.789 205.862,212.752 204.271,210.914 201.948 L 209.600 200.287 209.596 192.044 L 209.592 183.800 208.395 181.712 C 206.876 179.063,204.937 177.124,202.288 175.605 L 200.200 174.408 192.000 174.408 L 183.800 174.408 181.712 175.605 C 179.063 177.124,177.124 179.063,175.605 181.712 L 174.408 183.800 174.404 192.044 L 174.400 200.287 173.086 201.948 C 171.248 204.271,169.211 205.862,166.596 207.019 C 163.453 208.409,160.673 211.145,159.168 214.331 C 157.733 217.366,156.293 219.230,153.948 221.086 L 152.287 222.400 136.000 222.400 L 119.713 222.400 118.052 221.086 C 115.707 219.230,114.267 217.366,112.832 214.331 C 111.327 211.145,108.547 208.409,105.404 207.019 C 102.789 205.862,100.752 204.271,98.914 201.948 L 97.600 200.287 97.596 192.044 L 97.592 183.800 96.395 181.712 C 95.737 180.564,94.563 178.989,93.787 178.213 C 93.011 177.437,91.436 176.263,90.288 175.605 L 88.200 174.408 78.400 174.398 C 62.666 174.382,63.592 175.222,63.609 160.982 L 63.619 152.164 62.103 149.994 C 59.040 145.610,56.227 144.188,53.480 145.637 M292.893 145.667 C 288.678 147.711,288.400 149.100,288.400 168.079 L 288.400 183.730 289.584 185.574 C 293.008 190.911,294.658 191.601,303.993 191.596 C 317.761 191.589,319.592 189.758,319.592 176.000 C 319.592 165.173,318.912 163.702,312.552 160.778 C 307.986 158.678,305.322 156.014,303.222 151.448 C 300.479 145.483,297.135 143.611,292.893 145.667 M56.600 160.029 L 56.600 168.592 54.800 168.865 C 53.810 169.015,51.698 169.315,50.106 169.530 C 44.209 170.330,42.330 172.209,41.530 178.106 C 40.708 184.173,40.607 184.600,39.996 184.600 C 39.337 184.600,38.857 168.183,39.497 167.543 C 39.670 167.370,41.518 167.039,43.605 166.806 C 52.297 165.837,53.837 164.302,54.802 155.645 C 55.251 151.614,55.418 151.073,56.137 151.312 C 56.469 151.423,56.600 153.896,56.600 160.029 M296.869 153.233 C 297.017 154.205,297.315 156.302,297.530 157.894 C 298.330 163.791,300.209 165.670,306.106 166.470 C 307.698 166.685,309.810 166.985,310.800 167.135 L 312.600 167.408 312.600 176.004 L 312.600 184.600 304.000 184.600 L 295.400 184.600 295.295 168.401 C 295.238 159.491,295.283 151.961,295.396 151.667 C 295.794 150.629,296.604 151.489,296.869 153.233 M165.322 254.175 C 161.607 255.905,157.187 261.234,157.204 263.964 C 157.221 266.706,161.278 271.777,164.905 273.589 L 167.328 274.800 176.000 274.800 L 184.672 274.800 187.095 273.589 C 190.700 271.788,194.792 266.690,194.792 264.000 C 194.792 261.310,190.700 256.212,187.095 254.411 L 184.672 253.200 176.036 253.204 C 167.745 253.208,167.317 253.247,165.322 254.175 M185.994 258.950 C 187.645 260.257,190.400 263.414,190.400 264.000 C 190.400 264.586,187.645 267.743,185.994 269.050 L 184.287 270.400 176.000 270.400 L 167.713 270.400 166.006 269.050 C 164.355 267.743,161.600 264.586,161.600 264.000 C 161.600 263.414,164.355 260.257,166.006 258.950 L 167.713 257.600 176.000 257.600 L 184.287 257.600 185.994 258.950 M117.322 286.175 C 113.607 287.905,109.187 293.234,109.204 295.964 C 109.227 299.652,114.116 304.726,119.621 306.772 C 122.444 307.822,124.136 309.575,125.372 312.728 C 127.213 317.426,129.510 320.050,133.344 321.835 L 135.400 322.792 160.000 322.792 L 184.600 322.792 186.678 321.825 C 190.414 320.085,194.800 314.780,194.800 312.000 C 194.800 309.220,190.414 303.915,186.678 302.175 L 184.600 301.208 160.280 301.204 C 140.129 301.201,135.775 301.103,134.880 300.636 C 133.085 299.698,131.656 297.894,130.626 295.267 C 128.787 290.574,126.489 287.950,122.656 286.165 C 120.112 284.980,119.888 284.981,117.322 286.175 M121.994 290.950 C 124.220 292.712,126.402 295.492,126.393 296.556 C 126.375 298.888,122.888 302.375,120.556 302.393 C 119.137 302.404,113.600 297.315,113.600 296.000 C 113.600 295.033,119.033 289.600,120.000 289.600 C 120.158 289.600,121.055 290.208,121.994 290.950 M185.994 306.950 C 187.645 308.257,190.400 311.414,190.400 312.000 C 190.400 312.586,187.645 315.743,185.994 317.050 L 184.287 318.400 160.000 318.400 L 135.713 318.400 134.006 317.050 C 128.830 312.954,128.464 309.088,133.008 306.515 L 134.600 305.613 159.444 305.607 L 184.287 305.600 185.994 306.950 " stroke="none" fill="#cc141e" fill-rule="evenodd"></path><path id="path3" d="M117.347 161.989 C 116.218 162.856,114.643 164.452,113.847 165.536 L 112.400 167.507 112.400 184.475 L 112.400 201.443 113.424 203.498 C 114.259 205.174,114.826 205.741,116.502 206.576 L 118.557 207.600 136.000 207.600 L 153.443 207.600 155.498 206.576 C 157.174 205.741,157.741 205.174,158.576 203.498 L 159.600 201.443 159.600 184.475 L 159.600 167.507 158.145 165.525 C 157.345 164.435,155.753 162.836,154.609 161.971 L 152.527 160.400 135.964 160.407 L 119.400 160.413 117.347 161.989 M229.347 161.989 C 228.218 162.856,226.643 164.452,225.847 165.536 L 224.400 167.507 224.400 184.475 L 224.400 201.443 225.424 203.498 C 226.259 205.174,226.826 205.741,228.502 206.576 L 230.557 207.600 247.332 207.600 C 266.124 207.600,266.366 207.570,268.968 204.968 C 271.564 202.373,271.600 202.081,271.600 183.807 L 271.600 167.507 270.145 165.525 C 269.345 164.435,267.753 162.836,266.609 161.971 L 264.527 160.400 247.964 160.407 L 231.400 160.413 229.347 161.989 " stroke="none" fill="#04a4ec" fill-rule="evenodd"></path></g></svg>