<?xml version="1.0" standalone="no"?>
<!DOCTYPE svg PUBLIC "-//W3C//DTD SVG 20010904//EN"
 "http://www.w3.org/TR/2001/REC-SVG-20010904/DTD/svg10.dtd">
<svg version="1.0" xmlns="http://www.w3.org/2000/svg"
 width="2048.000000pt" height="2048.000000pt" viewBox="0 0 2048.000000 2048.000000"
 preserveAspectRatio="xMidYMid meet">

<g transform="translate(0.000000,2048.000000) scale(0.100000,-0.100000)"
fill="#000000" stroke="none">
<path d="M5635 13264 c-22 -9 -61 -24 -88 -34 -26 -9 -55 -24 -65 -32 -9 -8
-33 -24 -52 -36 -43 -26 -99 -83 -136 -141 -16 -24 -32 -49 -36 -55 -4 -6 -21
-46 -38 -89 -27 -72 -30 -89 -30 -195 1 -73 6 -130 14 -152 8 -19 23 -58 34
-86 32 -86 116 -186 214 -258 21 -15 77 -43 125 -63 84 -35 93 -36 208 -36
115 0 124 2 207 36 98 40 174 92 233 160 67 76 85 104 102 154 9 26 23 59 32
73 13 19 16 53 16 165 0 130 -2 145 -28 210 -15 39 -31 75 -35 81 -47 73 -85
124 -108 145 -75 68 -198 135 -294 160 -58 14 -230 10 -275 -7z m298 -256 c84
-42 132 -90 173 -170 31 -62 34 -75 34 -156 0 -82 -3 -94 -35 -154 -44 -84
-84 -124 -165 -167 -60 -32 -72 -34 -155 -34 -83 0 -95 2 -155 34 -85 45 -122
82 -165 163 -33 62 -35 72 -35 159 0 83 3 98 31 152 42 81 91 130 169 170 59
31 73 34 153 35 79 0 94 -3 150 -32z"/>
<path d="M7800 12121 l0 -801 155 0 155 0 0 336 0 337 128 -5 c151 -5 202 -24
247 -88 16 -22 63 -149 115 -307 l89 -268 160 -3 c89 -1 161 1 161 6 0 23
-182 547 -208 598 -29 57 -94 129 -141 153 -11 7 -21 15 -21 19 0 4 29 20 65
36 176 77 260 242 226 442 -28 160 -119 262 -284 317 -58 20 -89 21 -454 25
l-393 3 0 -800z m697 534 c108 -32 156 -144 122 -282 -15 -56 -61 -104 -116
-121 -25 -7 -107 -12 -217 -12 l-176 0 0 215 0 215 168 0 c121 0 183 -4 219
-15z"/>
<path d="M11213 12535 c-96 -27 -162 -72 -218 -147 -15 -21 -31 -38 -36 -38
-4 0 -10 39 -11 88 l-3 87 -145 0 -145 0 -3 -602 -2 -603 154 0 155 0 3 383 3
382 33 67 c53 107 130 146 272 136 99 -7 144 -54 160 -163 5 -38 10 -235 10
-437 l0 -368 150 0 150 0 0 418 c0 430 -5 501 -42 599 -29 79 -104 154 -183
183 -78 29 -228 36 -302 15z"/>
<path d="M12641 12540 c-92 -20 -187 -83 -232 -156 -37 -60 -49 -46 -49 56 l0
90 -145 0 -145 0 0 -605 0 -605 149 0 149 0 4 373 c4 329 6 378 22 424 40 113
126 173 251 173 92 0 150 -28 179 -85 20 -38 21 -59 24 -462 l3 -423 149 0
150 0 0 441 c0 500 -4 535 -69 636 -64 99 -155 143 -306 149 -49 2 -110 -1
-134 -6z"/>
<path d="M13855 12533 c-215 -45 -373 -207 -420 -428 -19 -90 -19 -280 0 -370
46 -220 201 -373 425 -421 106 -22 292 -15 381 15 100 35 199 116 258 213 l22
38 -100 65 c-55 36 -107 65 -115 65 -8 0 -17 -9 -21 -20 -11 -34 -101 -106
-149 -120 -61 -17 -161 -17 -222 0 -97 27 -184 148 -184 256 l0 34 395 0 394
0 7 37 c10 52 -3 249 -20 310 -36 130 -125 242 -233 289 -117 52 -281 67 -418
37z m260 -242 c71 -33 108 -90 121 -189 l7 -52 -256 0 -256 0 5 33 c17 91 77
174 149 208 55 25 175 25 230 0z"/>
<path d="M15989 12536 c-131 -28 -237 -103 -286 -205 -24 -49 -28 -68 -28
-146 0 -78 4 -97 28 -147 54 -111 149 -168 369 -223 162 -40 182 -48 213 -81
18 -20 25 -38 25 -68 0 -85 -54 -120 -180 -120 -113 1 -180 27 -260 101 -33
30 -66 53 -73 51 -19 -4 -167 -163 -167 -178 0 -49 132 -146 253 -187 76 -25
94 -27 242 -27 181 0 234 13 332 80 172 118 203 392 60 532 -62 60 -132 90
-311 134 -218 54 -247 71 -248 148 -1 75 56 110 178 110 83 0 145 -21 210 -70
l56 -42 25 24 c14 12 53 54 86 92 l61 69 -44 39 c-52 46 -112 79 -190 103 -75
22 -266 29 -351 11z"/>
<path d="M15308 12527 c-81 -23 -140 -73 -182 -155 -9 -18 -21 -30 -26 -27 -6
4 -10 47 -10 96 l0 90 -147 -3 -148 -3 -3 -602 -2 -603 154 0 155 0 3 363 c3
350 4 364 26 419 28 69 93 132 154 148 26 8 68 10 108 5 127 -13 111 -24 136
100 30 142 30 149 -2 164 -41 18 -163 23 -216 8z"/>
<path d="M9240 12103 c0 -242 5 -456 10 -493 13 -83 60 -179 107 -221 21 -17
62 -44 93 -58 51 -24 65 -26 185 -26 112 1 137 4 177 22 54 25 128 90 159 139
37 60 49 45 49 -56 l0 -90 145 0 145 0 0 605 0 606 -152 -3 -153 -3 -6 -385
c-6 -422 -7 -430 -67 -501 -52 -60 -103 -82 -192 -83 -118 0 -170 40 -190 145
-6 28 -10 226 -10 440 l0 389 -150 0 -150 0 0 -427z"/>
<path d="M3859 12417 c-25 -13 -56 -28 -70 -32 -13 -4 -39 -19 -56 -34 -18
-14 -48 -38 -65 -52 -18 -14 -46 -34 -63 -43 -16 -9 -50 -32 -75 -51 -25 -19
-67 -50 -95 -70 -92 -64 -100 -69 -160 -116 -33 -25 -71 -52 -85 -59 -14 -7
-38 -24 -55 -38 -16 -13 -71 -54 -121 -91 -104 -77 -147 -122 -195 -206 -32
-56 -34 -66 -34 -150 1 -83 3 -95 34 -150 42 -79 81 -118 161 -162 60 -34 72
-37 147 -37 69 -1 86 2 111 21 17 13 49 27 72 32 23 5 52 18 63 29 12 11 33
25 46 32 13 7 44 28 70 46 25 19 56 42 69 52 13 9 37 29 55 43 18 14 46 34 62
43 17 9 50 32 75 51 56 43 96 72 235 170 41 28 127 25 201 -9 31 -14 74 -29
95 -32 66 -11 74 -45 26 -118 -22 -34 -41 -64 -87 -141 -30 -50 -55 -90 -95
-155 -16 -26 -41 -66 -55 -89 -14 -23 -35 -57 -47 -74 -13 -18 -29 -45 -37
-62 -8 -16 -26 -45 -40 -64 -14 -19 -26 -40 -26 -46 0 -6 -9 -21 -21 -33 -11
-13 -27 -38 -34 -57 -8 -18 -26 -50 -40 -71 -14 -20 -25 -44 -25 -52 0 -8 -11
-38 -24 -66 -13 -28 -27 -77 -31 -109 -5 -41 -16 -67 -36 -93 -16 -20 -29 -42
-29 -48 0 -7 -9 -21 -19 -33 -10 -11 -27 -35 -36 -54 -10 -19 -27 -46 -39 -60
-12 -15 -30 -42 -41 -60 -82 -137 -108 -178 -137 -216 -16 -20 -28 -41 -28
-47 0 -7 -6 -21 -14 -32 -14 -18 -34 -19 -498 -24 l-483 -5 -75 -37 c-91 -45
-164 -116 -211 -208 -32 -62 -34 -71 -34 -170 0 -101 2 -109 34 -174 47 -91
125 -167 217 -212 l73 -35 623 3 c584 3 626 4 652 21 15 10 47 24 71 32 55 16
88 41 179 130 77 76 100 102 131 151 29 45 90 133 124 179 17 22 54 75 83 117
43 65 58 79 85 84 24 5 40 1 59 -12 14 -11 45 -30 68 -44 23 -14 58 -35 77
-47 18 -12 56 -34 82 -50 27 -15 64 -40 84 -55 20 -16 41 -28 48 -28 11 0 53
-28 112 -76 l26 -21 -12 -92 c-6 -51 -18 -112 -26 -136 -9 -24 -22 -92 -30
-151 -9 -59 -24 -137 -35 -173 -10 -36 -24 -106 -30 -156 -5 -49 -19 -119 -31
-155 -15 -47 -21 -94 -22 -170 -1 -102 0 -108 35 -180 47 -98 119 -170 214
-216 65 -31 78 -34 165 -34 87 0 99 3 155 33 34 17 77 46 95 62 41 36 104 121
113 153 4 12 18 34 30 50 18 20 26 49 35 114 6 48 18 106 26 128 8 22 21 91
29 153 9 62 23 135 31 162 9 28 22 100 30 161 8 61 22 130 30 153 8 23 21 92
30 154 8 62 24 145 35 186 13 48 20 106 20 162 0 83 -2 91 -40 161 -44 81 -71
112 -179 208 -40 36 -79 70 -86 77 -6 6 -41 35 -76 64 -35 28 -69 57 -74 64
-6 7 -53 49 -105 94 -114 99 -125 122 -97 196 10 27 25 57 33 66 7 8 19 31 25
50 7 19 20 46 30 60 10 14 25 44 34 67 10 23 23 42 30 42 19 0 65 -65 87 -122
10 -27 25 -59 33 -71 8 -12 21 -40 29 -62 18 -52 74 -142 113 -183 17 -17 65
-48 105 -67 l75 -36 504 3 504 3 60 34 c79 46 122 91 164 170 31 60 34 74 34
151 0 79 -3 90 -36 153 -46 86 -86 126 -167 168 l-65 34 -364 5 c-310 4 -365
7 -371 20 -37 72 -71 150 -76 174 -4 17 -20 54 -36 84 -15 30 -28 60 -28 67 0
7 -13 39 -30 70 -16 31 -30 64 -30 74 0 9 -10 32 -21 51 -12 19 -28 56 -36 82
-7 27 -22 63 -33 81 -10 17 -24 55 -30 82 -26 123 -108 240 -229 330 -29 22
-59 46 -67 53 -7 7 -34 22 -58 33 -25 11 -48 24 -52 30 -3 5 -29 21 -57 35
-29 13 -63 31 -77 39 -43 24 -181 63 -281 79 -52 9 -112 23 -133 31 -21 9 -77
21 -124 26 -48 6 -111 19 -141 30 -30 10 -93 24 -140 30 -46 6 -110 20 -140
31 -36 13 -93 22 -156 25 -92 4 -104 3 -146 -20z m260 -242 c45 -13 118 -29
163 -35 46 -7 98 -18 117 -26 19 -8 78 -21 130 -30 53 -8 123 -23 156 -34 33
-10 98 -24 145 -30 81 -11 221 -62 260 -94 8 -7 31 -19 50 -26 19 -7 42 -19
50 -25 8 -7 33 -22 55 -34 131 -71 179 -141 173 -251 -3 -50 -12 -82 -42 -140
-21 -41 -47 -93 -57 -115 -11 -22 -26 -51 -34 -65 -8 -14 -22 -41 -30 -60 -8
-19 -22 -46 -30 -60 -8 -14 -22 -41 -30 -60 -8 -19 -22 -46 -30 -60 -8 -14
-24 -45 -35 -70 -11 -25 -24 -52 -30 -60 -5 -8 -35 -67 -66 -130 -31 -63 -62
-122 -69 -130 -7 -8 -18 -32 -24 -52 -7 -20 -20 -47 -30 -60 -10 -13 -23 -38
-29 -56 -6 -18 -22 -47 -34 -65 -18 -25 -23 -46 -23 -93 0 -72 -18 -52 270
-304 254 -222 288 -253 373 -336 l72 -70 0 -60 c0 -33 -7 -84 -15 -114 -9 -30
-23 -98 -31 -150 -8 -52 -26 -142 -39 -200 -13 -58 -29 -144 -35 -192 -6 -48
-17 -106 -25 -129 -8 -23 -22 -94 -30 -157 -9 -64 -22 -138 -30 -164 -10 -35
-11 -56 -5 -74 14 -35 -45 -158 -95 -202 -43 -38 -70 -46 -137 -40 -46 5 -57
11 -100 56 l-48 51 0 78 c0 48 8 105 20 148 11 38 25 108 31 155 6 47 19 117
29 155 11 39 26 117 34 175 8 58 22 125 30 149 9 23 21 84 27 135 6 50 15 110
20 134 19 90 -19 144 -161 227 -28 17 -66 40 -83 52 -18 13 -48 30 -67 39 -19
9 -44 24 -55 34 -11 9 -31 24 -46 31 -39 22 -88 52 -123 76 -17 12 -46 29 -64
37 -19 9 -47 27 -64 41 -16 14 -35 25 -43 25 -7 0 -18 7 -26 16 -7 9 -39 30
-72 47 -104 56 -121 66 -161 94 -74 54 -124 109 -157 173 -29 58 -33 74 -33
150 -1 74 3 91 26 130 14 25 29 56 33 70 6 22 48 91 144 235 15 22 32 51 39
65 7 14 22 39 35 57 12 17 36 55 52 83 17 28 44 73 60 100 17 26 38 61 47 77
31 50 42 67 70 110 15 23 28 46 28 51 0 5 10 22 23 37 26 34 70 106 93 155 18
39 20 109 4 140 -14 26 -86 66 -135 75 -21 4 -55 15 -75 25 -19 10 -62 23 -95
30 -33 7 -76 20 -95 30 -19 9 -78 27 -131 39 -96 22 -97 22 -148 2 -28 -10
-64 -30 -81 -42 -60 -48 -165 -125 -248 -181 -18 -13 -51 -36 -72 -53 -22 -16
-62 -46 -90 -65 -50 -34 -86 -60 -160 -115 -76 -57 -146 -95 -173 -95 -42 0
-117 76 -117 117 0 34 49 103 96 133 16 11 49 36 74 55 25 19 62 44 82 55 20
11 40 24 43 30 4 6 23 22 43 36 77 51 181 125 247 175 22 16 63 45 90 64 28
19 68 48 90 64 22 17 67 49 99 71 73 49 114 52 235 15z m1487 -1013 c11 -34
26 -68 33 -75 6 -8 18 -39 27 -68 9 -30 22 -61 29 -69 7 -8 20 -39 29 -68 8
-28 22 -62 31 -75 8 -12 20 -38 25 -58 6 -22 26 -52 50 -73 l40 -36 395 0 395
0 40 -36 c36 -33 40 -41 40 -84 0 -43 -4 -51 -40 -84 l-40 -36 -455 0 -455 0
-45 41 c-25 23 -45 48 -45 57 0 8 -11 34 -24 56 -13 23 -29 59 -36 81 -7 22
-19 47 -27 57 -8 9 -21 37 -28 63 -8 25 -23 58 -35 72 -11 14 -20 33 -20 43 0
9 -11 37 -24 62 -36 67 -40 100 -18 129 10 13 26 44 36 69 17 44 72 102 91 96
5 -1 19 -30 31 -64z m-1712 -1135 c33 -34 95 -93 138 -130 75 -68 76 -70 66
-100 -6 -18 -23 -46 -37 -64 -14 -17 -37 -48 -51 -68 -14 -20 -40 -56 -57 -81
-18 -24 -33 -47 -33 -50 0 -4 -12 -21 -27 -39 -16 -18 -44 -56 -63 -84 -54
-80 -109 -134 -175 -172 l-60 -34 -592 0 -593 0 -50 50 c-55 55 -68 94 -56
160 8 40 66 110 106 129 17 7 185 13 538 16 l514 5 39 45 c22 25 49 61 60 80
11 19 30 49 42 67 12 17 36 55 52 83 17 29 39 64 51 78 12 15 29 43 39 62 18
35 74 110 83 110 2 0 32 -28 66 -63z"/>
<path d="M7800 8991 l0 -801 155 0 155 0 0 336 0 337 128 -5 c151 -5 202 -24
247 -88 16 -22 63 -149 115 -307 l89 -268 160 -3 c89 -1 161 1 161 6 0 23
-182 547 -208 598 -29 57 -94 129 -141 153 -11 7 -21 15 -21 19 0 4 29 20 65
36 176 77 260 242 226 442 -28 160 -119 262 -284 317 -58 20 -89 21 -454 25
l-393 3 0 -800z m697 534 c108 -32 156 -144 122 -282 -15 -56 -61 -104 -116
-121 -25 -7 -107 -12 -217 -12 l-176 0 0 215 0 215 168 0 c121 0 183 -4 219
-15z"/>
<path d="M9632 9405 c-139 -30 -261 -113 -338 -229 -121 -182 -134 -500 -30
-716 39 -81 140 -185 216 -223 175 -86 444 -91 602 -11 83 42 208 174 208 220
0 13 -187 134 -207 134 -7 0 -19 -12 -27 -27 -40 -78 -131 -124 -244 -126
-138 -1 -220 40 -266 135 -26 53 -49 146 -40 160 3 5 181 8 395 8 362 0 390 1
397 18 14 33 6 255 -11 321 -37 137 -114 237 -228 293 -110 54 -292 72 -427
43z m263 -244 c22 -10 48 -27 57 -37 25 -29 55 -103 63 -156 l6 -48 -255 0
c-206 0 -256 3 -256 13 0 7 7 36 17 63 43 128 119 184 253 184 51 0 88 -6 115
-19z"/>
<path d="M10951 9405 c-168 -38 -304 -142 -374 -285 -48 -98 -67 -188 -67
-331 0 -204 57 -357 174 -467 114 -106 241 -152 415 -152 175 0 300 48 393
149 46 50 108 158 108 187 0 12 -200 124 -222 124 -8 0 -19 -15 -26 -34 -24
-65 -70 -116 -130 -144 -122 -56 -271 -20 -339 81 -43 64 -54 103 -60 221 -11
188 32 310 131 371 43 26 61 30 132 34 107 4 177 -24 223 -91 17 -23 36 -52
44 -62 13 -18 18 -16 116 54 57 40 105 79 108 86 14 36 -103 171 -183 212
-107 55 -314 77 -443 47z"/>
<path d="M12191 9404 c-270 -58 -424 -259 -438 -569 -16 -349 142 -586 433
-651 109 -24 284 -16 375 18 224 83 344 247 368 500 10 102 0 242 -23 318 -43
144 -154 280 -276 338 -124 58 -299 77 -439 46z m275 -268 c60 -28 107 -82
131 -151 26 -73 25 -309 -1 -384 -40 -115 -126 -174 -257 -174 -174 0 -263
104 -276 319 -13 213 49 355 174 400 63 22 170 18 229 -10z"/>
<path d="M14890 9405 c-206 -47 -359 -195 -416 -405 -25 -91 -25 -319 -1 -410
30 -113 80 -201 152 -268 112 -105 243 -151 426 -152 174 0 289 37 387 125 46
42 112 130 112 151 0 12 -197 137 -209 132 -5 -1 -24 -23 -43 -48 -21 -28 -55
-56 -90 -74 -50 -25 -68 -28 -145 -29 -178 0 -271 80 -299 260 l-7 43 399 2
399 3 3 134 c2 95 -2 151 -13 195 -44 173 -145 279 -315 330 -77 24 -258 30
-340 11z m287 -257 c49 -33 85 -101 91 -175 l4 -53 -251 0 c-287 0 -268 -7
-231 93 25 65 71 120 125 147 33 17 56 20 131 18 79 -3 96 -6 131 -30z"/>
<path d="M17020 9405 c-143 -32 -237 -102 -288 -213 -20 -45 -25 -71 -25 -138
0 -74 4 -91 32 -148 56 -115 135 -162 370 -221 79 -20 157 -43 172 -51 40 -20
61 -57 61 -105 -1 -87 -96 -133 -230 -112 -87 14 -151 44 -217 104 -29 27 -57
49 -63 49 -11 0 -134 -124 -159 -160 -13 -18 -13 -24 1 -45 44 -67 125 -121
242 -161 103 -35 301 -45 407 -20 136 32 227 98 279 204 30 61 33 74 33 162 0
135 -35 210 -128 274 -64 44 -125 66 -294 105 -186 42 -223 66 -223 142 0 72
60 109 177 109 83 0 153 -23 213 -71 l52 -41 55 53 c30 30 68 71 85 92 l31 38
-33 34 c-39 41 -134 92 -204 112 -77 21 -268 26 -346 8z"/>
<path d="M16357 9399 c-85 -20 -158 -78 -194 -154 -28 -58 -43 -34 -43 66 l0
89 -145 0 -145 0 0 -605 0 -605 150 0 150 0 0 308 c0 169 5 338 10 376 11 77
40 149 73 184 55 60 165 85 263 62 30 -7 56 -11 59 -8 3 2 17 62 31 133 29
144 31 137 -49 155 -56 12 -107 12 -160 -1z"/>
<path d="M13070 9392 c0 -4 99 -275 220 -602 121 -327 220 -595 220 -597 0 -2
82 -2 182 -1 l183 3 221 600 222 600 -151 3 c-83 1 -153 -1 -157 -5 -4 -5 -60
-161 -125 -348 -169 -489 -176 -505 -190 -505 -14 0 -16 7 -199 530 l-113 325
-156 3 c-87 1 -157 -1 -157 -6z"/>
</g>
</svg>
