<svg id="visual" viewBox="0 0 900 150" width="900" height="150" xmlns="http://www.w3.org/2000/svg" xmlns:xlink="http://www.w3.org/1999/xlink" version="1.1"><path d="M0 122L16.7 118C33.3 114 66.7 106 100 104.2C133.3 102.3 166.7 106.7 200 112.7C233.3 118.7 266.7 126.3 300 132.3C333.3 138.3 366.7 142.7 400 140.8C433.3 139 466.7 131 500 121.8C533.3 112.7 566.7 102.3 600 95C633.3 87.7 666.7 83.3 700 87.2C733.3 91 766.7 103 800 114C833.3 125 866.7 135 883.3 140L900 145L900 0L883.3 0C866.7 0 833.3 0 800 0C766.7 0 733.3 0 700 0C666.7 0 633.3 0 600 0C566.7 0 533.3 0 500 0C466.7 0 433.3 0 400 0C366.7 0 333.3 0 300 0C266.7 0 233.3 0 200 0C166.7 0 133.3 0 100 0C66.7 0 33.3 0 16.7 0L0 0Z" fill="#863bff"></path><path d="M0 90L16.7 89.3C33.3 88.7 66.7 87.3 100 87.2C133.3 87 166.7 88 200 92.3C233.3 96.7 266.7 104.3 300 106.5C333.3 108.7 366.7 105.3 400 102.3C433.3 99.3 466.7 96.7 500 99.8C533.3 103 566.7 112 600 113.8C633.3 115.7 666.7 110.3 700 105.8C733.3 101.3 766.7 97.7 800 92.8C833.3 88 866.7 82 883.3 79L900 76L900 0L883.3 0C866.7 0 833.3 0 800 0C766.7 0 733.3 0 700 0C666.7 0 633.3 0 600 0C566.7 0 533.3 0 500 0C466.7 0 433.3 0 400 0C366.7 0 333.3 0 300 0C266.7 0 233.3 0 200 0C166.7 0 133.3 0 100 0C66.7 0 33.3 0 16.7 0L0 0Z" fill="#ae2ee3"></path><path d="M0 47L16.7 53.7C33.3 60.3 66.7 73.7 100 78.8C133.3 84 166.7 81 200 75.7C233.3 70.3 266.7 62.7 300 57C333.3 51.3 366.7 47.7 400 49.7C433.3 51.7 466.7 59.3 500 60C533.3 60.7 566.7 54.3 600 57.3C633.3 60.3 666.7 72.7 700 77C733.3 81.3 766.7 77.7 800 79.3C833.3 81 866.7 88 883.3 91.5L900 95L900 0L883.3 0C866.7 0 833.3 0 800 0C766.7 0 733.3 0 700 0C666.7 0 633.3 0 600 0C566.7 0 533.3 0 500 0C466.7 0 433.3 0 400 0C366.7 0 333.3 0 300 0C266.7 0 233.3 0 200 0C166.7 0 133.3 0 100 0C66.7 0 33.3 0 16.7 0L0 0Z" fill="#c428c9"></path><path d="M0 69L16.7 64.3C33.3 59.7 66.7 50.3 100 46.3C133.3 42.3 166.7 43.7 200 48.3C233.3 53 266.7 61 300 63.3C333.3 65.7 366.7 62.3 400 58.8C433.3 55.3 466.7 51.7 500 48.2C533.3 44.7 566.7 41.3 600 39C633.3 36.7 666.7 35.3 700 39C733.3 42.7 766.7 51.3 800 54.8C833.3 58.3 866.7 56.7 883.3 55.8L900 55L900 0L883.3 0C866.7 0 833.3 0 800 0C766.7 0 733.3 0 700 0C666.7 0 633.3 0 600 0C566.7 0 533.3 0 500 0C466.7 0 433.3 0 400 0C366.7 0 333.3 0 300 0C266.7 0 233.3 0 200 0C166.7 0 133.3 0 100 0C66.7 0 33.3 0 16.7 0L0 0Z" fill="#d02db1"></path><path d="M0 35L16.7 34.8C33.3 34.7 66.7 34.3 100 32.3C133.3 30.3 166.7 26.7 200 26.2C233.3 25.7 266.7 28.3 300 28.2C333.3 28 366.7 25 400 21.7C433.3 18.3 466.7 14.7 500 11.5C533.3 8.3 566.7 5.7 600 11C633.3 16.3 666.7 29.7 700 30.3C733.3 31 766.7 19 800 17C833.3 15 866.7 23 883.3 27L900 31L900 0L883.3 0C866.7 0 833.3 0 800 0C766.7 0 733.3 0 700 0C666.7 0 633.3 0 600 0C566.7 0 533.3 0 500 0C466.7 0 433.3 0 400 0C366.7 0 333.3 0 300 0C266.7 0 233.3 0 200 0C166.7 0 133.3 0 100 0C66.7 0 33.3 0 16.7 0L0 0Z" fill="#d53a9d"></path></svg>