<svg id="visual" viewBox="0 0 900 150" width="900" height="150" xmlns="http://www.w3.org/2000/svg" xmlns:xlink="http://www.w3.org/1999/xlink" version="1.1"><path d="M0 61L16.7 53.8C33.3 46.7 66.7 32.3 100 22.2C133.3 12 166.7 6 200 12.7C233.3 19.3 266.7 38.7 300 46.7C333.3 54.7 366.7 51.3 400 43.5C433.3 35.7 466.7 23.3 500 20C533.3 16.7 566.7 22.3 600 30.2C633.3 38 666.7 48 700 44.3C733.3 40.7 766.7 23.3 800 22C833.3 20.7 866.7 35.3 883.3 42.7L900 50L900 151L883.3 151C866.7 151 833.3 151 800 151C766.7 151 733.3 151 700 151C666.7 151 633.3 151 600 151C566.7 151 533.3 151 500 151C466.7 151 433.3 151 400 151C366.7 151 333.3 151 300 151C266.7 151 233.3 151 200 151C166.7 151 133.3 151 100 151C66.7 151 33.3 151 16.7 151L0 151Z" fill="#863bff"></path><path d="M0 88L16.7 85.2C33.3 82.3 66.7 76.7 100 69.2C133.3 61.7 166.7 52.3 200 52.3C233.3 52.3 266.7 61.7 300 62.3C333.3 63 366.7 55 400 55.3C433.3 55.7 466.7 64.3 500 61.3C533.3 58.3 566.7 43.7 600 38.2C633.3 32.7 666.7 36.3 700 45.2C733.3 54 766.7 68 800 70.3C833.3 72.7 866.7 63.3 883.3 58.7L900 54L900 151L883.3 151C866.7 151 833.3 151 800 151C766.7 151 733.3 151 700 151C666.7 151 633.3 151 600 151C566.7 151 533.3 151 500 151C466.7 151 433.3 151 400 151C366.7 151 333.3 151 300 151C266.7 151 233.3 151 200 151C166.7 151 133.3 151 100 151C66.7 151 33.3 151 16.7 151L0 151Z" fill="#ae2ee3"></path><path d="M0 86L16.7 82C33.3 78 66.7 70 100 71C133.3 72 166.7 82 200 89C233.3 96 266.7 100 300 96.8C333.3 93.7 366.7 83.3 400 83.7C433.3 84 466.7 95 500 92.7C533.3 90.3 566.7 74.7 600 71.2C633.3 67.7 666.7 76.3 700 76.2C733.3 76 766.7 67 800 67.7C833.3 68.3 866.7 78.7 883.3 83.8L900 89L900 151L883.3 151C866.7 151 833.3 151 800 151C766.7 151 733.3 151 700 151C666.7 151 633.3 151 600 151C566.7 151 533.3 151 500 151C466.7 151 433.3 151 400 151C366.7 151 333.3 151 300 151C266.7 151 233.3 151 200 151C166.7 151 133.3 151 100 151C66.7 151 33.3 151 16.7 151L0 151Z" fill="#c428c9"></path><path d="M0 81L16.7 82.5C33.3 84 66.7 87 100 90.3C133.3 93.7 166.7 97.3 200 97.3C233.3 97.3 266.7 93.7 300 92C333.3 90.3 366.7 90.7 400 88.5C433.3 86.3 466.7 81.7 500 85.2C533.3 88.7 566.7 100.3 600 106.2C633.3 112 666.7 112 700 110.2C733.3 108.3 766.7 104.7 800 106.7C833.3 108.7 866.7 116.3 883.3 120.2L900 124L900 151L883.3 151C866.7 151 833.3 151 800 151C766.7 151 733.3 151 700 151C666.7 151 633.3 151 600 151C566.7 151 533.3 151 500 151C466.7 151 433.3 151 400 151C366.7 151 333.3 151 300 151C266.7 151 233.3 151 200 151C166.7 151 133.3 151 100 151C66.7 151 33.3 151 16.7 151L0 151Z" fill="#d02db1"></path><path d="M0 107L16.7 109.3C33.3 111.7 66.7 116.3 100 121.7C133.3 127 166.7 133 200 131.3C233.3 129.7 266.7 120.3 300 114.8C333.3 109.3 366.7 107.7 400 108.3C433.3 109 466.7 112 500 116.2C533.3 120.3 566.7 125.7 600 123.8C633.3 122 666.7 113 700 113.8C733.3 114.7 766.7 125.3 800 128.3C833.3 131.3 866.7 126.7 883.3 124.3L900 122L900 151L883.3 151C866.7 151 833.3 151 800 151C766.7 151 733.3 151 700 151C666.7 151 633.3 151 600 151C566.7 151 533.3 151 500 151C466.7 151 433.3 151 400 151C366.7 151 333.3 151 300 151C266.7 151 233.3 151 200 151C166.7 151 133.3 151 100 151C66.7 151 33.3 151 16.7 151L0 151Z" fill="#d53a9d"></path></svg>